<svg width="28" height="28" viewBox="0 0 28 28" fill="none" xmlns="http://www.w3.org/2000/svg">
<g clip-path="url(#clip0_9_348)">
<path d="M25.3763 3.5H2.62329C1.17356 3.5 -0.00170898 4.67521 -0.00170898 6.125V21.875C-0.00170898 23.3247 1.17356 24.5 2.62329 24.5H25.3763C26.8261 24.5 28.0013 23.3247 28.0013 21.875V6.125C28.0013 4.67521 26.8261 3.5 25.3763 3.5ZM27.1263 21.486L18.8493 13.209L27.1263 7.93468V21.486V21.486ZM2.62329 4.375H25.3763C26.3413 4.375 27.1263 5.16001 27.1263 6.125V6.8978L15.0794 14.5746C14.4275 14.9899 13.5948 14.9771 12.9577 14.5439L0.873291 6.33041V6.125C0.873291 5.16001 1.65838 4.375 2.62329 4.375ZM0.873291 7.38728L9.26703 13.0922L0.873291 21.486V7.38728ZM25.3763 23.625H2.62329C1.90255 23.625 1.28283 23.1866 1.015 22.5628L9.99245 13.5853L12.4664 15.2668C12.9415 15.5898 13.491 15.7517 14.0413 15.7517C14.5642 15.7517 15.088 15.6056 15.549 15.3121L18.1051 13.6832L26.9846 22.5628C26.7168 23.1866 26.0971 23.625 25.3763 23.625Z" fill="black"/>
</g>
<defs>
<clipPath id="clip0_9_348">
<rect width="28" height="28" fill="white"/>
</clipPath>
</defs>
</svg>
