<svg width="28" height="28" viewBox="0 0 28 28" fill="none" xmlns="http://www.w3.org/2000/svg">
<g clip-path="url(#clip0_9_383)">
<path d="M6.14402 11.392C7.23204 8.09507 10.3303 5.72727 14.0001 5.72727C15.9728 5.72727 17.7547 6.42727 19.1547 7.57273L23.2274 3.5C20.7456 1.33636 17.5638 0 14.0001 0C8.48187 0 3.73083 3.14801 1.44678 7.75836L6.14402 11.392Z" fill="#EA4335"/>
<path d="M18.7141 21.0146C17.4426 21.8356 15.827 22.2726 13.9999 22.2726C10.3441 22.2726 7.25554 19.9229 6.15638 16.6458L1.4436 20.224C3.72482 24.8425 8.47573 27.9999 13.9999 27.9999C17.4215 27.9999 20.6911 26.7835 23.1398 24.4994L18.7141 21.0146Z" fill="#34A853"/>
<path d="M23.1399 24.4996C25.7007 22.1108 27.3636 18.5543 27.3636 14C27.3636 13.1728 27.2364 12.2819 27.0455 11.4546H14V16.8637H21.5091C21.1386 18.6826 20.144 20.0915 18.7142 21.0147L23.1399 24.4996Z" fill="#4A90E2"/>
<path d="M6.15648 16.6458C5.87805 15.8156 5.72727 14.926 5.72727 13.9999C5.72727 13.0879 5.87351 12.2112 6.1439 11.3919L1.44666 7.7583C0.509352 9.63711 0 11.7546 0 13.9999C0 16.2394 0.518911 18.3518 1.44371 20.2241L6.15648 16.6458Z" fill="#FBBC05"/>
</g>
<defs>
<clipPath id="clip0_9_383">
<rect width="28" height="28" fill="white"/>
</clipPath>
</defs>
</svg>
